<?xml version="1.0" encoding="UTF-8"?>
<svg version="1.1" viewBox="0 0 2000 2000" width="500" height="500" xmlns="http://www.w3.org/2000/svg">
<path transform="translate(944,885)" d="m0 0h19l24 4v2l-13 6-14 8-12 11-9 11-7 12-6 15-5 17-5 33-1 17v24l-4-2-10-8-16-9-16-5-6-1h-19l-16 3-17 6-17 9-14 10-11 9-10 9-13 13-1-2 13-28 15-29 15-24 13-19 11-14 9-10 11-12 14-14 11-9 15-10 16-9 16-7 20-5z" fill="#59DEE5"/>
<path transform="translate(1006,892)" d="m0 0 1 3-5 11-4 16-1 7v12l3 17 6 18 7 14 12 19 14 17 9 10 7 8 9 8v2l-24 3-13 5-11 6-13 10-11 13-9 16-6 17-4 15-3 22-1 21v13h-2l-12-31-9-31-7-30-4-25-2-19v-42l3-22 4-17 6-17 8-16 6-10 8-10 11-12 9-8 16-11z" fill="#59DEE5"/>
<path transform="translate(1021,881)" d="m0 0h2l8 18 6 10 12 13 10 7 19 10 17 6 19 4 15 2 14 1 34 1v2l-7 6-7 10-7 14-4 14-1 6v21l3 15 6 16 10 19 10 14 9 11 13 13 8 7v2l-9-3-42-21-19-11-21-14-17-12-11-9-13-12-19-19-13-17-9-14-9-17-6-17-4-18-1-6v-25z" fill="#59DEE5"/>
<path transform="translate(1251,658)" d="m0 0h2l-3 9-14 29-11 21-14 22-11 16-11 15-12 14-7 8h-2l-2 4-3 1-2 4h-2l-1 3-14 11-14 10-15 9-19 8-19 6-12 2-16 1-37-4v-2l22-10 13-10 9-10 8-13 6-12 6-19 4-19 3-24 1-19v-17h3l7 7 11 7 11 5 12 4 6 1h11l16-1 15-4 15-6 18-10 14-10 20-18 6-7h2z" fill="#59DEE5"/>
<path transform="translate(1029,541)" d="m0 0h2l8 20 13 41 6 26 5 30 2 21v40l-3 23-6 23-9 22-10 16-9 10-7 8-11 10-16 11-2-1 7-19 2-11v-19l-3-16-7-19-9-17-12-17-8-10-12-14-16-16v-1l23-3 14-5 11-6 12-9 7-7 11-16 7-16 5-17 3-15 2-23z" fill="#59DEE5"/>
<path transform="translate(811,802)" d="m0 0h34l24 3 26 6 20 8 16 9 12 9 11 10 9 11 11 15 1 2-5-1-16-6-12-2h-20l-18 4-16 6-15 8-16 11-17 14-16 15-7 8h-2v2h-2l-2-21-5-16-8-15-11-12-9-8-14-8-14-6-17-5-18-3-13-1h-29l1-3 20-8 31-10 36-9 22-4z" fill="#59DEE5"/>
<path transform="translate(1184,803)" d="m0 0 2 4 2 17 4 14 7 13 11 14 8 7 15 10 14 6 20 6 20 3 16 1h16l8-1v2l-11 5-22 8-38 11-34 7-33 4-20 1-34-3-19-3-16-5-23-10-12-8-10-8-12-11-9-11-10-14 2-2 14 6 13 3 7 1h14l13-2 14-4 19-9 16-10 14-11 11-9 10-9 5-5h2l2-4z" fill="#59DEE5"/>
<path transform="translate(790,615)" d="m0 0 9 3 35 17 18 10 22 14 18 13 13 10 10 9 7 7 8 7 11 12 12 16 11 18 7 14 6 18 3 15 1 9v21l-3 27-4-4-8-17-9-12-8-8-16-11-18-8-30-8-12-2-11-1-40-1 2-4h2l2-4 9-13 5-10 4-14 1-6v-21l-3-15-5-14-8-16-7-11-12-16-12-13-8-7z" fill="#59DEE5"/>
<path transform="translate(1165,632)" d="m0 0h11l8 3 6 5 5 8 2 7v8l-3 11-6 11-9 8-12 6-6 1h-11l-8-3-6-5-5-9-2-7v-7l3-10 5-9 9-10 8-5 5-2z" fill="#59DEE5"/>
<path transform="translate(1254,811)" d="m0 0h9l13 3 10 7 6 8 3 7v11l-5 10-7 7-10 5-6 2-12 1-12-2-8-4-9-8-4-8-1-4v-9l4-10 7-8 9-5z" fill="#59DEE5"/>
<path transform="translate(1188,998)" d="m0 0h11l11 3 11 7 7 8 6 12 1 3v14l-6 12-8 6-13 3-12-2-10-5-10-9-5-8-3-9v-15l4-9 7-7z" fill="#59DEE5"/>
<path transform="translate(838,1036)" d="m0 0h10l9 4 6 5 4 6 2 6v13l-4 11-6 8-9 8-13 6h-15l-8-3-7-6-4-8-1-4v-11l4-12 9-12 9-7 9-3z" fill="#59DEE5"/>
<path transform="translate(968,573)" d="m0 0h9l8 3 6 4 7 9 4 11 1 4v11l-4 13-6 9-8 6-10 3h-9l-9-4-7-7-6-12-2-11v-7l3-11 5-10 9-8z" fill="#59DEE5"/>
<path transform="translate(1022,1090)" d="m0 0h8l11 4 8 8 6 12 2 14-2 12-5 10-6 7-10 5-3 1h-11l-10-5-7-7-5-10-2-8v-14l5-14 9-10 8-4z" fill="#59DEE5"/>
<path transform="translate(784,671)" d="m0 0h11l11 3 10 6 7 7 5 8 3 8v16l-4 8-8 7-8 3-4 1h-7l-13-4-11-8-6-8-4-8-2-6v-13l4-9 5-6 8-4z" fill="#59DEE5"/>
<path transform="translate(736,865)" d="m0 0h10l10 2 8 4 8 7 5 10 1 4v7l-4 10-8 9-10 5-9 2-17-1-9-3-9-7-4-5-4-9v-8l3-9 7-9 10-6z" fill="#59DEE5"/>
</svg>
